<svg width="35" height="35" viewBox="0 0 35 35" fill="none" xmlns="http://www.w3.org/2000/svg">
<path d="M3.31976 27.755L10.1623 20.9125L15.113 25.8615L23.1123 17.864L26.25 21V12.25H17.5L20.6378 15.3877L15.113 20.9125L10.164 15.9617L1.50851 24.6172C0.510889 22.3773 -0.00312847 19.9521 1.43251e-05 17.5C1.43251e-05 7.83475 7.83476 0 17.5 0C27.1653 0 35 7.83475 35 17.5C35 27.1652 27.1653 35 17.5 35C14.7315 35.0018 12.0022 34.3459 9.53682 33.0863C7.07147 31.8267 4.94061 29.9994 3.31976 27.755Z" fill="#66B686"/>
</svg>
