<svg width="35" height="35" viewBox="0 0 35 35" fill="none" xmlns="http://www.w3.org/2000/svg">
<path d="M17.5 35C7.83475 35 0 27.1652 0 17.5C0 7.83475 7.83475 0 17.5 0C27.1652 0 35 7.83475 35 17.5C35 27.1652 27.1652 35 17.5 35ZM15.75 24.5V28H19.25V24.5H21C21.8125 24.5 22.6089 24.2737 23.3001 23.8466C23.9912 23.4194 24.5498 22.8083 24.9131 22.0816C25.2765 21.3548 25.4303 20.5413 25.3573 19.7321C25.2844 18.9229 24.9875 18.15 24.5 17.5C24.9875 16.85 25.2844 16.0771 25.3573 15.2679C25.4303 14.4587 25.2765 13.6452 24.9131 12.9184C24.5498 12.1917 23.9912 11.5806 23.3001 11.1534C22.6089 10.7263 21.8125 10.5 21 10.5H19.25V7H15.75V10.5H10.5V24.5H15.75ZM14 19.25H21C21.2321 19.25 21.4546 19.3422 21.6187 19.5063C21.7828 19.6704 21.875 19.8929 21.875 20.125C21.875 20.3571 21.7828 20.5796 21.6187 20.7437C21.4546 20.9078 21.2321 21 21 21H14V19.25ZM14 14H21C21.2321 14 21.4546 14.0922 21.6187 14.2563C21.7828 14.4204 21.875 14.6429 21.875 14.875C21.875 15.1071 21.7828 15.3296 21.6187 15.4937C21.4546 15.6578 21.2321 15.75 21 15.75H14V14Z" fill="#66B686"/>
</svg>
