<svg width="25" height="24" viewBox="0 0 25 24" fill="currentColor"
    xmlns="http://www.w3.org/2000/svg">
    <path
        d="M13.2925 2.2925C13.3854 2.19959 13.4957 2.12589 13.6171 2.07561C13.7385 2.02532 13.8686 1.99944 14 1.99944C14.1314 1.99944 14.2615 2.02532 14.3829 2.07561C14.5043 2.12589 14.6146 2.19959 14.7075 2.2925C14.8004 2.38541 14.8741 2.49571 14.9244 2.6171C14.9747 2.7385 15.0006 2.8686 15.0006 3C15.0006 3.13139 14.9747 3.2615 14.9244 3.3829C14.8741 3.50429 14.8004 3.61459 14.7075 3.7075L7.41375 11L24 11C24.2652 11 24.5196 11.1054 24.7071 11.2929C24.8946 11.4804 25 11.7348 25 12C25 12.2652 24.8946 12.5196 24.7071 12.7071C24.5196 12.8946 24.2652 13 24 13L7.41375 13L14.7075 20.2925C14.8004 20.3854 14.8741 20.4957 14.9244 20.6171C14.9747 20.7385 15.0006 20.8686 15.0006 21C15.0006 21.1314 14.9747 21.2615 14.9244 21.3829C14.8741 21.5043 14.8004 21.6146 14.7075 21.7075C14.6146 21.8004 14.5043 21.8741 14.3829 21.9244C14.2615 21.9747 14.1314 22.0006 14 22.0006C13.8686 22.0006 13.7385 21.9747 13.6171 21.9244C13.4957 21.8741 13.3854 21.8004 13.2925 21.7075L4.2925 12.7075C4.19952 12.6146 4.12576 12.5043 4.07544 12.3829C4.02512 12.2615 3.99921 12.1314 3.99921 12C3.99921 11.8686 4.02512 11.7385 4.07544 11.6171C4.12576 11.4957 4.19952 11.3854 4.2925 11.2925L13.2925 2.2925ZM-1.00536e-06 1L-4.37114e-08 23C-3.21184e-08 23.2652 0.105357 23.5196 0.292893 23.7071C0.48043 23.8946 0.734784 24 1 24C1.26522 24 1.51957 23.8946 1.70711 23.7071C1.89464 23.5196 2 23.2652 2 23L2 1C2 0.734783 1.89464 0.480429 1.70711 0.292892C1.51957 0.105356 1.26522 -5.53044e-08 0.999999 -4.37114e-08C0.734782 -3.21184e-08 0.480429 0.105356 0.292892 0.292892C0.105356 0.480429 -1.01695e-06 0.734783 -1.00536e-06 1Z"
        fill="currentColor" />
</svg>