<svg width="32" height="32" viewBox="0 0 32 32" fill="none" xmlns="http://www.w3.org/2000/svg">
<path d="M16 0.879639C12.8355 0.879639 9.74207 1.78773 7.11088 3.48909C4.4797 5.19044 2.42894 7.60864 1.21793 10.4379C0.0069325 13.2671 -0.309921 16.3804 0.307443 19.3839C0.924806 22.3874 2.44866 25.1463 4.6863 27.3117C6.92394 29.4771 9.77486 30.9518 12.8786 31.5492C15.9823 32.1467 19.1993 31.8401 22.1229 30.6681C25.0466 29.4962 27.5454 27.5117 29.3035 24.9654C31.0616 22.4191 32 19.4256 32 16.3632C32 12.2567 30.3143 8.3184 27.3137 5.41467C24.3131 2.51094 20.2435 0.879639 16 0.879639ZM24 22.2663C24.2652 22.523 24.4142 22.8711 24.4142 23.234C24.4142 23.597 24.2652 23.9451 24 24.2017C23.7348 24.4584 23.3751 24.6026 23 24.6026C22.6249 24.6026 22.2652 24.4584 22 24.2017L16 18.3954L10 24.2211C9.86868 24.3482 9.71278 24.449 9.5412 24.5178C9.36962 24.5865 9.18572 24.6219 9.00001 24.6219C8.81429 24.6219 8.63039 24.5865 8.45881 24.5178C8.28723 24.449 8.13133 24.3482 8.00001 24.2211C7.86868 24.094 7.76451 23.9431 7.69344 23.7771C7.62237 23.6111 7.58579 23.4331 7.58579 23.2534C7.58579 23.0737 7.62237 22.8957 7.69344 22.7296C7.76451 22.5636 7.86868 22.4127 8.00001 22.2857L14 16.4406L7.83001 10.4214C7.56479 10.1647 7.41579 9.81662 7.41579 9.45366C7.41579 9.09069 7.56479 8.74259 7.83001 8.48594C8.09522 8.22928 8.45493 8.08509 8.83001 8.08509C9.20508 8.08509 9.56479 8.22928 9.83001 8.48594L16 14.5245L22.17 8.55368C22.3013 8.42659 22.4572 8.32578 22.6288 8.25701C22.8004 8.18823 22.9843 8.15283 23.17 8.15283C23.3557 8.15283 23.5396 8.18823 23.7112 8.25701C23.8828 8.32578 24.0387 8.42659 24.17 8.55368C24.3013 8.68076 24.4055 8.83163 24.4766 8.99767C24.5476 9.16371 24.5842 9.34168 24.5842 9.5214C24.5842 9.70112 24.5476 9.87908 24.4766 10.0451C24.4055 10.2112 24.3013 10.362 24.17 10.4891L18 16.4406L24 22.2663Z" fill="#008A3D"/>
</svg>
