<svg viewBox="0 0 16 16" fill="currentColor"
    xmlns="http://www.w3.org/2000/svg">
    <path
        d="M12.4559 8.5C12.4559 8.63261 12.4035 8.75979 12.31 8.85355C12.2166 8.94732 12.0899 9 11.9577 9H3.98598C3.85384 9 3.72711 8.94732 3.63368 8.85355C3.54024 8.75979 3.48775 8.63261 3.48775 8.5C3.48775 8.36739 3.54024 8.24021 3.63368 8.14645C3.72711 8.05268 3.85384 8 3.98598 8H11.9577C12.0899 8 12.2166 8.05268 12.31 8.14645C12.4035 8.24021 12.4559 8.36739 12.4559 8.5ZM14.4489 5H1.49482C1.36268 5 1.23595 5.05268 1.14251 5.14645C1.04907 5.24021 0.996582 5.36739 0.996582 5.5C0.996582 5.63261 1.04907 5.75979 1.14251 5.85355C1.23595 5.94732 1.36268 6 1.49482 6H14.4489C14.581 6 14.7077 5.94732 14.8012 5.85355C14.8946 5.75979 14.9471 5.63261 14.9471 5.5C14.9471 5.36739 14.8946 5.24021 14.8012 5.14645C14.7077 5.05268 14.581 5 14.4489 5ZM9.46655 11H6.47715C6.34501 11 6.21828 11.0527 6.12484 11.1464C6.03141 11.2402 5.97892 11.3674 5.97892 11.5C5.97892 11.6326 6.03141 11.7598 6.12484 11.8536C6.21828 11.9473 6.34501 12 6.47715 12H9.46655C9.59869 12 9.72542 11.9473 9.81885 11.8536C9.91229 11.7598 9.96478 11.6326 9.96478 11.5C9.96478 11.3674 9.91229 11.2402 9.81885 11.1464C9.72542 11.0527 9.59869 11 9.46655 11Z"
        fill="currentColor" />
</svg>