<svg width="100%" height="100%" viewBox="0 0 6 7" fill="none" xmlns="http://www.w3.org/2000/svg">
    <g clip-path="url(#clip0_58_8173)">
        <path
            d="M3 0.775024C2.45318 0.775645 1.92894 0.993142 1.54228 1.3798C1.15562 1.76646 0.93812 2.29071 0.9375 2.83752C0.9375 4.60237 2.8125 5.93526 2.89242 5.99104C2.92395 6.01312 2.96151 6.02497 3 6.02497C3.03849 6.02497 3.07605 6.01312 3.10758 5.99104C3.1875 5.93526 5.0625 4.60237 5.0625 2.83752C5.06188 2.29071 4.84438 1.76646 4.45772 1.3798C4.07106 0.993142 3.54682 0.775645 3 0.775024ZM3 2.08752C3.14834 2.08752 3.29334 2.13151 3.41668 2.21392C3.54001 2.29633 3.63614 2.41347 3.69291 2.55051C3.74968 2.68756 3.76453 2.83836 3.73559 2.98384C3.70665 3.12933 3.63522 3.26296 3.53033 3.36785C3.42544 3.47274 3.2918 3.54417 3.14632 3.57311C3.00083 3.60205 2.85003 3.5872 2.71299 3.53043C2.57594 3.47367 2.45881 3.37754 2.3764 3.2542C2.29399 3.13086 2.25 2.98586 2.25 2.83752C2.25 2.63861 2.32902 2.44785 2.46967 2.30719C2.61032 2.16654 2.80109 2.08752 3 2.08752Z"
            fill="#008A3D" />
        <circle cx="3.09375" cy="2.74377" r="1.03125" fill="#008A3D" />
    </g>
    <defs>
        <clipPath id="clip0_58_8173">
            <rect width="100%" height="100%" fill="white"
                transform="translate(0 0.400024)" />
        </clipPath>
    </defs>
</svg>