<svg width="24" height="24" viewBox="0 0 24 24" fill="currentColor"
    xmlns="http://www.w3.org/2000/svg">
    <path
        d="M19.892 6.50553L19.9513 6.47131L19.9119 6.41537C19.1036 5.26984 18.0564 4.31338 16.8424 3.61205C15.6285 2.91072 14.2768 2.48123 12.8807 2.35323L12.8125 2.34698V2.41547V10.4841V10.5923L12.9063 10.5382L19.892 6.50553ZM11.1875 2.41547V2.34699L11.1193 2.35323C9.57495 2.49449 8.08707 3.00445 6.78076 3.84023C5.47444 4.67602 4.38787 5.81321 3.61238 7.15621C2.8369 8.4992 2.39517 10.0087 2.32433 11.5579C2.25349 13.1071 2.55561 14.6507 3.20529 16.0588L3.23397 16.121L3.29328 16.0868L11.1563 11.5477L11.1875 11.5297V11.4936V2.41547ZM4.10798 17.4945L4.04869 17.5287L4.08815 17.5846C4.98221 18.8519 6.16745 19.886 7.54423 20.5999C8.92101 21.3139 10.4491 21.6869 12 21.6875H12C13.6256 21.6873 15.2251 21.2781 16.651 20.4975C18.0769 19.7168 19.2835 18.5899 20.1595 17.2205C21.0355 15.8512 21.5529 14.2834 21.6639 12.6615C21.7749 11.0397 21.476 9.41603 20.7947 7.94006L20.766 7.87789L20.7067 7.91212L4.10798 17.4945ZM5.71512 2.594C7.57544 1.35097 9.76258 0.687507 12 0.6875C14.9993 0.690676 17.8748 1.88355 19.9956 4.00437C22.1165 6.1252 23.3093 9.00076 23.3125 12.0001C23.3125 14.2374 22.649 16.4246 21.406 18.2849C20.163 20.1452 18.3962 21.5952 16.3291 22.4514C14.262 23.3076 11.9875 23.5316 9.79305 23.0951C7.59864 22.6586 5.58294 21.5812 4.00086 19.9991C2.41878 18.4171 1.34137 16.4014 0.904872 14.207C0.468376 12.0125 0.692402 9.73798 1.54862 7.67089C2.40483 5.6038 3.85479 3.83703 5.71512 2.594Z"
        fill="currentColor" stroke="white" stroke-width="0.125" />
</svg>