<svg width="6" height="11" viewBox="0 0 6 11" fill="none" xmlns="http://www.w3.org/2000/svg">
<path fill-rule="evenodd" clip-rule="evenodd" d="M5.27829 1.1803C5.45034 1.35238 5.54704 1.58575 5.54704 1.82907C5.54704 2.0724 5.45034 2.30577 5.27829 2.47785L2.25651 5.49966L5.27829 8.52144C5.44553 8.69453 5.53798 8.92635 5.53592 9.16689C5.53374 9.40754 5.43727 9.63776 5.26716 9.80787C5.09705 9.97797 4.86684 10.0744 4.62624 10.0766C4.38563 10.0787 4.15384 9.98623 3.98077 9.81899L0.31018 6.14844C0.138144 5.97636 0.0415039 5.74299 0.0415039 5.49966C0.0415039 5.25634 0.138144 5.02297 0.31018 4.85089L3.98077 1.1803C4.15285 1.00826 4.38621 0.911621 4.62954 0.911621C4.87287 0.911621 5.10623 1.00826 5.27829 1.1803Z" fill="white"/>
</svg>
