<svg width="24" height="24" viewBox="0 0 24 24" fill="none" xmlns="http://www.w3.org/2000/svg">
    <mask id="path-1-inside-1_1056_46" fill="white">
        <path
            d="M12 6.74999C10.9617 6.74999 9.94666 7.0579 9.08331 7.63477C8.21995 8.21165 7.54704 9.03159 7.14968 9.9909C6.75232 10.9502 6.64836 12.0058 6.85093 13.0242C7.0535 14.0426 7.55351 14.9781 8.28774 15.7123C9.02197 16.4465 9.95743 16.9465 10.9758 17.1491C11.9942 17.3517 13.0498 17.2477 14.0091 16.8504C14.9685 16.453 15.7884 15.7801 16.3653 14.9167C16.9421 14.0534 17.25 13.0383 17.25 12C17.2486 10.608 16.695 9.27353 15.7108 8.28928C14.7265 7.30503 13.392 6.75144 12 6.74999ZM12 15.5C11.3078 15.5 10.6311 15.2947 10.0556 14.9101C9.47998 14.5255 9.03138 13.9789 8.76647 13.3394C8.50156 12.6998 8.43225 11.9961 8.5673 11.3172C8.70235 10.6382 9.03569 10.0146 9.52518 9.52512C10.0147 9.03563 10.6383 8.70229 11.3172 8.56724C11.9962 8.43219 12.6999 8.5015 13.3394 8.76641C13.979 9.03132 14.5256 9.47992 14.9102 10.0555C15.2948 10.6311 15.5 11.3078 15.5 12C15.5 12.9282 15.1313 13.8185 14.4749 14.4749C13.8185 15.1312 12.9283 15.5 12 15.5ZM21.625 12.2362C21.6294 12.0787 21.6294 11.9212 21.625 11.7637L23.2569 9.72499C23.3425 9.61794 23.4017 9.4923 23.4298 9.35818C23.458 9.22405 23.4542 9.0852 23.4188 8.9528C23.1513 7.94721 22.7511 6.9817 22.2288 6.08171C22.1604 5.96393 22.0655 5.86374 21.9515 5.78912C21.8376 5.7145 21.7078 5.6675 21.5725 5.65186L18.9782 5.36311C18.8703 5.24936 18.7609 5.13999 18.6501 5.03499L18.3438 2.43405C18.328 2.29866 18.2809 2.16882 18.2061 2.05488C18.1312 1.94094 18.0308 1.84606 17.9129 1.7778C17.0125 1.25646 16.0471 0.856683 15.0418 0.588895C14.9093 0.553673 14.7704 0.550071 14.6363 0.578378C14.5021 0.606685 14.3765 0.666111 14.2696 0.751864L12.2363 2.37499C12.0788 2.37499 11.9213 2.37499 11.7638 2.37499L9.72505 0.746395C9.61801 0.660829 9.49236 0.601602 9.35824 0.573485C9.22411 0.545369 9.08526 0.549148 8.95286 0.58452C7.94743 0.852519 6.98198 1.25267 6.08177 1.77452C5.96399 1.84291 5.8638 1.93784 5.78918 2.05177C5.71456 2.1657 5.66756 2.29548 5.65193 2.43077L5.36317 5.02952C5.24942 5.13817 5.14005 5.24754 5.03505 5.35765L2.43411 5.65624C2.29872 5.67199 2.16888 5.71916 2.05494 5.79397C1.94101 5.86879 1.84612 5.9692 1.77786 6.08718C1.25652 6.98751 0.856744 7.95294 0.588956 8.95827C0.553734 9.09075 0.550132 9.22965 0.578439 9.36378C0.606746 9.49791 0.666172 9.62351 0.751925 9.73046L2.37505 11.7637C2.37505 11.9212 2.37505 12.0787 2.37505 12.2362L0.746456 14.275C0.66089 14.382 0.601663 14.5077 0.573547 14.6418C0.54543 14.7759 0.549209 14.9148 0.584581 15.0472C0.852101 16.0528 1.25228 17.0183 1.77458 17.9183C1.84297 18.036 1.93791 18.1362 2.05183 18.2109C2.16576 18.2855 2.29554 18.3325 2.43083 18.3481L5.02521 18.6369C5.13385 18.7506 5.24323 18.86 5.35333 18.965L5.6563 21.5659C5.67205 21.7013 5.71922 21.8312 5.79403 21.9451C5.86885 22.059 5.96926 22.1539 6.08724 22.2222C6.98757 22.7435 7.953 23.1433 8.95833 23.4111C9.09081 23.4463 9.22971 23.4499 9.36384 23.4216C9.49797 23.3933 9.62357 23.3339 9.73052 23.2481L11.7638 21.625C11.9213 21.6294 12.0788 21.6294 12.2363 21.625L14.2751 23.2569C14.3821 23.3424 14.5077 23.4017 14.6419 23.4298C14.776 23.4579 14.9148 23.4541 15.0472 23.4187C16.0528 23.1512 17.0183 22.751 17.9183 22.2287C18.0361 22.1604 18.1363 22.0654 18.2109 21.9515C18.2855 21.8376 18.3325 21.7078 18.3482 21.5725L18.6369 18.9781C18.7507 18.8702 18.8601 18.7608 18.965 18.65L21.566 18.3437C21.7014 18.328 21.8312 18.2808 21.9452 18.206C22.0591 18.1312 22.154 18.0308 22.2222 17.9128C22.7436 17.0125 23.1434 16.047 23.4111 15.0417C23.4464 14.9092 23.45 14.7703 23.4217 14.6362C23.3934 14.5021 23.3339 14.3765 23.2482 14.2695L21.625 12.2362ZM19.8641 11.5253C19.8827 11.8415 19.8827 12.1585 19.8641 12.4747C19.8511 12.6911 19.9189 12.9047 20.0544 13.0741L21.6065 15.0133C21.4284 15.5793 21.2003 16.1283 20.9251 16.6539L18.4532 16.9339C18.2379 16.9578 18.0392 17.0607 17.8954 17.2226C17.6848 17.4594 17.4606 17.6837 17.2238 17.8942C17.0618 18.038 16.9589 18.2368 16.935 18.452L16.6605 20.9217C16.135 21.1971 15.5859 21.4252 15.0199 21.6031L13.0796 20.0511C12.9243 19.927 12.7314 19.8595 12.5327 19.8597H12.4802C12.164 19.8783 11.847 19.8783 11.5308 19.8597C11.3144 19.8466 11.1008 19.9145 10.9315 20.05L8.98677 21.6031C8.42079 21.425 7.87176 21.197 7.34614 20.9217L7.06614 18.4531C7.04225 18.2378 6.93936 18.0391 6.77739 17.8953C6.54061 17.6848 6.31637 17.4605 6.10583 17.2237C5.96204 17.0618 5.76329 16.9589 5.54802 16.935L3.07833 16.6594C2.80292 16.1338 2.57488 15.5848 2.39692 15.0187L3.94896 13.0784C4.08448 12.9091 4.1523 12.6955 4.13927 12.4791C4.12068 12.1629 4.12068 11.8459 4.13927 11.5297C4.1523 11.3132 4.08448 11.0996 3.94896 10.9303L2.39692 8.98671C2.57502 8.42073 2.80305 7.87169 3.07833 7.34608L5.54693 7.06608C5.76219 7.04219 5.96095 6.9393 6.10474 6.77733C6.31527 6.54055 6.53951 6.31631 6.7763 6.10577C6.93891 5.96188 7.04222 5.76268 7.06614 5.54686L7.34068 3.07827C7.86623 2.80286 8.41527 2.57482 8.9813 2.39686L10.9216 3.94889C11.0909 4.08442 11.3045 4.15224 11.521 4.13921C11.8372 4.12061 12.1542 4.12061 12.4704 4.13921C12.6868 4.15224 12.9004 4.08442 13.0697 3.94889L15.0133 2.39686C15.5793 2.57495 16.1283 2.80299 16.654 3.07827L16.934 5.54686C16.9579 5.76213 17.0607 5.96088 17.2227 6.10468C17.4595 6.31521 17.6837 6.53945 17.8943 6.77624C18.0381 6.93821 18.2368 7.04109 18.4521 7.06499L20.9218 7.33952C21.1972 7.86507 21.4252 8.41412 21.6032 8.98015L20.0511 10.9205C19.9143 11.0912 19.8464 11.307 19.8608 11.5253H19.8641Z" />
    </mask>
    <path
        d="M12 6.74999C10.9617 6.74999 9.94666 7.0579 9.08331 7.63477C8.21995 8.21165 7.54704 9.03159 7.14968 9.9909C6.75232 10.9502 6.64836 12.0058 6.85093 13.0242C7.0535 14.0426 7.55351 14.9781 8.28774 15.7123C9.02197 16.4465 9.95743 16.9465 10.9758 17.1491C11.9942 17.3517 13.0498 17.2477 14.0091 16.8504C14.9685 16.453 15.7884 15.7801 16.3653 14.9167C16.9421 14.0534 17.25 13.0383 17.25 12C17.2486 10.608 16.695 9.27353 15.7108 8.28928C14.7265 7.30503 13.392 6.75144 12 6.74999ZM12 15.5C11.3078 15.5 10.6311 15.2947 10.0556 14.9101C9.47998 14.5255 9.03138 13.9789 8.76647 13.3394C8.50156 12.6998 8.43225 11.9961 8.5673 11.3172C8.70235 10.6382 9.03569 10.0146 9.52518 9.52512C10.0147 9.03563 10.6383 8.70229 11.3172 8.56724C11.9962 8.43219 12.6999 8.5015 13.3394 8.76641C13.979 9.03132 14.5256 9.47992 14.9102 10.0555C15.2948 10.6311 15.5 11.3078 15.5 12C15.5 12.9282 15.1313 13.8185 14.4749 14.4749C13.8185 15.1312 12.9283 15.5 12 15.5ZM21.625 12.2362C21.6294 12.0787 21.6294 11.9212 21.625 11.7637L23.2569 9.72499C23.3425 9.61794 23.4017 9.4923 23.4298 9.35818C23.458 9.22405 23.4542 9.0852 23.4188 8.9528C23.1513 7.94721 22.7511 6.9817 22.2288 6.08171C22.1604 5.96393 22.0655 5.86374 21.9515 5.78912C21.8376 5.7145 21.7078 5.6675 21.5725 5.65186L18.9782 5.36311C18.8703 5.24936 18.7609 5.13999 18.6501 5.03499L18.3438 2.43405C18.328 2.29866 18.2809 2.16882 18.2061 2.05488C18.1312 1.94094 18.0308 1.84606 17.9129 1.7778C17.0125 1.25646 16.0471 0.856683 15.0418 0.588895C14.9093 0.553673 14.7704 0.550071 14.6363 0.578378C14.5021 0.606685 14.3765 0.666111 14.2696 0.751864L12.2363 2.37499C12.0788 2.37499 11.9213 2.37499 11.7638 2.37499L9.72505 0.746395C9.61801 0.660829 9.49236 0.601602 9.35824 0.573485C9.22411 0.545369 9.08526 0.549148 8.95286 0.58452C7.94743 0.852519 6.98198 1.25267 6.08177 1.77452C5.96399 1.84291 5.8638 1.93784 5.78918 2.05177C5.71456 2.1657 5.66756 2.29548 5.65193 2.43077L5.36317 5.02952C5.24942 5.13817 5.14005 5.24754 5.03505 5.35765L2.43411 5.65624C2.29872 5.67199 2.16888 5.71916 2.05494 5.79397C1.94101 5.86879 1.84612 5.9692 1.77786 6.08718C1.25652 6.98751 0.856744 7.95294 0.588956 8.95827C0.553734 9.09075 0.550132 9.22965 0.578439 9.36378C0.606746 9.49791 0.666172 9.62351 0.751925 9.73046L2.37505 11.7637C2.37505 11.9212 2.37505 12.0787 2.37505 12.2362L0.746456 14.275C0.66089 14.382 0.601663 14.5077 0.573547 14.6418C0.54543 14.7759 0.549209 14.9148 0.584581 15.0472C0.852101 16.0528 1.25228 17.0183 1.77458 17.9183C1.84297 18.036 1.93791 18.1362 2.05183 18.2109C2.16576 18.2855 2.29554 18.3325 2.43083 18.3481L5.02521 18.6369C5.13385 18.7506 5.24323 18.86 5.35333 18.965L5.6563 21.5659C5.67205 21.7013 5.71922 21.8312 5.79403 21.9451C5.86885 22.059 5.96926 22.1539 6.08724 22.2222C6.98757 22.7435 7.953 23.1433 8.95833 23.4111C9.09081 23.4463 9.22971 23.4499 9.36384 23.4216C9.49797 23.3933 9.62357 23.3339 9.73052 23.2481L11.7638 21.625C11.9213 21.6294 12.0788 21.6294 12.2363 21.625L14.2751 23.2569C14.3821 23.3424 14.5077 23.4017 14.6419 23.4298C14.776 23.4579 14.9148 23.4541 15.0472 23.4187C16.0528 23.1512 17.0183 22.751 17.9183 22.2287C18.0361 22.1604 18.1363 22.0654 18.2109 21.9515C18.2855 21.8376 18.3325 21.7078 18.3482 21.5725L18.6369 18.9781C18.7507 18.8702 18.8601 18.7608 18.965 18.65L21.566 18.3437C21.7014 18.328 21.8312 18.2808 21.9452 18.206C22.0591 18.1312 22.154 18.0308 22.2222 17.9128C22.7436 17.0125 23.1434 16.047 23.4111 15.0417C23.4464 14.9092 23.45 14.7703 23.4217 14.6362C23.3934 14.5021 23.3339 14.3765 23.2482 14.2695L21.625 12.2362ZM19.8641 11.5253C19.8827 11.8415 19.8827 12.1585 19.8641 12.4747C19.8511 12.6911 19.9189 12.9047 20.0544 13.0741L21.6065 15.0133C21.4284 15.5793 21.2003 16.1283 20.9251 16.6539L18.4532 16.9339C18.2379 16.9578 18.0392 17.0607 17.8954 17.2226C17.6848 17.4594 17.4606 17.6837 17.2238 17.8942C17.0618 18.038 16.9589 18.2368 16.935 18.452L16.6605 20.9217C16.135 21.1971 15.5859 21.4252 15.0199 21.6031L13.0796 20.0511C12.9243 19.927 12.7314 19.8595 12.5327 19.8597H12.4802C12.164 19.8783 11.847 19.8783 11.5308 19.8597C11.3144 19.8466 11.1008 19.9145 10.9315 20.05L8.98677 21.6031C8.42079 21.425 7.87176 21.197 7.34614 20.9217L7.06614 18.4531C7.04225 18.2378 6.93936 18.0391 6.77739 17.8953C6.54061 17.6848 6.31637 17.4605 6.10583 17.2237C5.96204 17.0618 5.76329 16.9589 5.54802 16.935L3.07833 16.6594C2.80292 16.1338 2.57488 15.5848 2.39692 15.0187L3.94896 13.0784C4.08448 12.9091 4.1523 12.6955 4.13927 12.4791C4.12068 12.1629 4.12068 11.8459 4.13927 11.5297C4.1523 11.3132 4.08448 11.0996 3.94896 10.9303L2.39692 8.98671C2.57502 8.42073 2.80305 7.87169 3.07833 7.34608L5.54693 7.06608C5.76219 7.04219 5.96095 6.9393 6.10474 6.77733C6.31527 6.54055 6.53951 6.31631 6.7763 6.10577C6.93891 5.96188 7.04222 5.76268 7.06614 5.54686L7.34068 3.07827C7.86623 2.80286 8.41527 2.57482 8.9813 2.39686L10.9216 3.94889C11.0909 4.08442 11.3045 4.15224 11.521 4.13921C11.8372 4.12061 12.1542 4.12061 12.4704 4.13921C12.6868 4.15224 12.9004 4.08442 13.0697 3.94889L15.0133 2.39686C15.5793 2.57495 16.1283 2.80299 16.654 3.07827L16.934 5.54686C16.9579 5.76213 17.0607 5.96088 17.2227 6.10468C17.4595 6.31521 17.6837 6.53945 17.8943 6.77624C18.0381 6.93821 18.2368 7.04109 18.4521 7.06499L20.9218 7.33952C21.1972 7.86507 21.4252 8.41412 21.6032 8.98015L20.0511 10.9205C19.9143 11.0912 19.8464 11.307 19.8608 11.5253H19.8641Z"
        fill="currentColor" stroke="#666666" stroke-width="0.25"
        mask="url(#path-1-inside-1_1056_46)" />
</svg>