<svg width="21" height="20" viewBox="0 0 21 20" fill="none" xmlns="http://www.w3.org/2000/svg">
<path d="M20.3684 10.2281C20.3693 9.54663 20.3113 8.8664 20.195 8.19482H10.6992V12.046H16.138C16.0267 12.6611 15.7911 13.2475 15.4455 13.7697C15.0999 14.292 14.6513 14.7393 14.1269 15.0848V17.5846H17.3728C19.2734 15.8444 20.3684 13.271 20.3684 10.2281Z" fill="#4285F4"/>
<path d="M10.6997 20C13.4169 20 15.7049 19.1139 17.3733 17.5862L14.1274 15.0864C13.2239 15.6947 12.0604 16.0419 10.6997 16.0419C8.07328 16.0419 5.84408 14.2836 5.04693 11.9143H1.70312V14.4906C2.5412 16.1467 3.82629 17.5389 5.41494 18.5118C7.00358 19.4847 8.83324 19.9999 10.6997 20Z" fill="#34A853"/>
<path d="M5.04686 11.914C4.62543 10.6724 4.62543 9.32793 5.04686 8.08639V5.51013H1.70305C0.998032 6.90333 0.630859 8.44096 0.630859 10.0002C0.630859 11.5594 0.998032 13.097 1.70305 14.4902L5.04686 11.914Z" fill="#FBBC04"/>
<path d="M10.6997 3.95879C12.1356 3.93549 13.5231 4.47429 14.5623 5.45872L17.4362 2.60469C15.6139 0.904883 13.1996 -0.0283412 10.6997 0.000656061C8.83324 0.000740536 7.00358 0.515984 5.41494 1.48886C3.82629 2.46174 2.5412 3.85397 1.70312 5.5101L5.04693 8.08636C5.84408 5.71704 8.07328 3.95879 10.6997 3.95879Z" fill="#EA4335"/>
</svg>
