<svg width="26" height="17" viewBox="0 0 26 17" fill="none" xmlns="http://www.w3.org/2000/svg">
<g clip-path="url(#clip0_1895_2068)">
<path d="M24.2667 17.0008H1.73333C1.27362 17.0008 0.832744 16.8217 0.507681 16.5029C0.182618 16.1841 0 15.7516 0 15.3008L0 8.14945H1.24872L1.53039 7.48078H2.16089L2.44183 8.14662H4.89883V7.64016L5.11839 8.15016H6.39383L6.61339 7.63166V8.14874H12.7183V7.05507H12.8339C12.9162 7.05791 12.9401 7.06499 12.9401 7.19957V8.15016H16.0983V7.89586C16.4212 8.05666 16.8018 8.15086 17.2055 8.15086L17.2741 8.15016H17.2705H18.5994L18.8839 7.48432H19.5144L19.7925 8.15016H22.3535V7.51691L22.7406 8.15016H24.7888V3.96816H22.7615V4.46186L22.4777 3.96816H20.3934V4.46186L20.1327 3.96816H17.3182C16.8917 3.94702 16.4669 4.03309 16.0839 4.2182L16.0991 4.21182V3.96816H14.1577V4.21182C13.9227 4.03017 13.6259 3.94328 13.3279 3.96886H13.3322H6.23783L5.76189 5.04907L5.27294 3.96886H3.03839V4.46257L2.79211 3.96886H0.885444L0.00216667 5.9522V1.7022C0.00216667 1.25133 0.184785 0.818928 0.509848 0.500116C0.834911 0.181304 1.27579 0.00219727 1.7355 0.00219727H24.2688C24.7285 0.00219727 25.1694 0.181304 25.4945 0.500116C25.8195 0.818928 26.0022 1.25133 26.0022 1.7022V9.12553H24.6494C24.6278 9.12411 24.6018 9.12411 24.5765 9.12411C24.263 9.12411 23.972 9.2162 23.7293 9.37416L23.7351 9.37061V9.12553H21.7346C21.422 9.10859 21.1128 9.19571 20.857 9.37274L20.8614 9.36991V9.12482H17.2893V9.36991C16.9969 9.20817 16.6666 9.12371 16.3309 9.12482H16.3027H16.3042H13.9476V9.36991C13.6397 9.17648 13.2743 9.09039 12.9104 9.12553L12.9169 9.12482H10.2801L9.67633 9.76516L9.11155 9.12482H5.17255V13.3097H9.03789L9.65972 12.6594L10.2454 13.3097H12.6281V12.33H12.9603C13.2797 12.3423 13.5983 12.29 13.8963 12.1763L13.8804 12.182V13.3111H15.8448V12.2209H15.9394C16.0593 12.2209 16.0716 12.2252 16.0716 12.3442V13.3118H22.0415L22.1144 13.3132C22.4568 13.3132 22.776 13.2126 23.0418 13.0405L23.0353 13.044V13.3118H24.9289L25.0192 13.3132C25.3738 13.3132 25.7111 13.2417 26.0173 13.112L26.0007 13.1184V15.3015C26.0007 15.7524 25.8181 16.1848 25.493 16.5036C25.168 16.8224 24.7271 17.0015 24.2674 17.0015L24.2667 17.0008ZM15.2425 12.7232H14.5073V9.72336H16.1944C16.4991 9.69566 16.8059 9.74594 17.0849 9.86928L17.0733 9.86503C17.2994 9.98686 17.4503 10.2192 17.4503 10.4855L17.4489 10.533V10.5309L17.4496 10.5578C17.4496 10.902 17.238 11.1981 16.9347 11.327L16.9289 11.3292C17.0741 11.3802 17.1954 11.4673 17.2857 11.5799L17.2871 11.5813C17.3891 11.7469 17.4318 11.9411 17.4084 12.1331L17.4092 12.1289V12.7224H16.6754V12.347C16.7101 12.1426 16.6683 11.9328 16.5577 11.7563L16.5598 11.7598C16.4836 11.7031 16.3964 11.6621 16.3036 11.6393C16.2107 11.6165 16.1141 11.6125 16.0196 11.6274L16.0239 11.6267H15.2425V12.7224V12.7232ZM15.2425 10.3432V11.0168H16.1308C16.2563 11.0281 16.3825 11.0061 16.4963 10.953L16.4919 10.9552C16.5384 10.9257 16.5766 10.8853 16.6031 10.8377C16.6296 10.7901 16.6435 10.7367 16.6436 10.6824L16.6429 10.6662V10.6669C16.6465 10.6127 16.6343 10.5587 16.6079 10.5111C16.5814 10.4634 16.5417 10.4241 16.4934 10.3977L16.4919 10.397C16.3823 10.3489 16.2619 10.3294 16.1424 10.3403H16.1453L15.2425 10.3432ZM8.72444 12.7224H5.8305V9.72336H8.76994L9.66911 10.7065L10.5986 9.72336H12.9336C13.7627 9.72336 14.1657 10.0471 14.1657 10.7115C14.1657 11.3879 13.7489 11.7166 12.8946 11.7166H11.9809V12.7217H10.5603L9.66044 11.7308L8.72516 12.7224H8.72444ZM11.2529 10.0449L10.1306 11.2279L11.2529 12.449V10.0449ZM6.55922 11.5006V12.097H8.35611L9.18666 11.2172L8.38789 10.3432H6.5585V10.8886H8.16328V11.4999L6.55922 11.5006ZM11.9809 10.3439V11.1074H12.9249C13.2138 11.1074 13.3799 10.9629 13.3799 10.7108C13.3799 10.4699 13.2253 10.3432 12.9328 10.3432L11.9809 10.3439ZM25.0084 12.7239H23.5972V12.0793H25.0026C25.1078 12.0935 25.2144 12.0665 25.2994 12.0042L25.2987 12.0049C25.3258 11.9802 25.3475 11.9503 25.3623 11.917C25.3771 11.8837 25.3847 11.8478 25.3847 11.8115V11.8002C25.3847 11.7643 25.3768 11.7289 25.3615 11.6964C25.3461 11.6638 25.3237 11.635 25.2958 11.6118C25.2211 11.5588 25.1289 11.5351 25.0373 11.5452H25.0387L24.9037 11.5409C24.2435 11.5239 23.496 11.5041 23.496 10.6166C23.496 10.1845 23.7719 9.72336 24.544 9.72336H26.0007V10.3623H24.6682C24.5653 10.351 24.4613 10.3713 24.3707 10.4204L24.3736 10.4189C24.3379 10.442 24.3092 10.474 24.2905 10.5116C24.2719 10.5493 24.2639 10.5911 24.2674 10.6329V10.6322V10.6399C24.2674 10.6877 24.2827 10.7342 24.3113 10.7729C24.3398 10.8115 24.38 10.8404 24.4263 10.8553L24.4277 10.856C24.5193 10.8837 24.6151 10.8952 24.7108 10.89H24.7087L25.1052 10.8999C25.404 10.8707 25.7026 10.9579 25.9364 11.1429L25.9343 11.1414C25.9559 11.1584 25.9747 11.1769 25.9913 11.1974L25.992 11.1981L26.0007 12.3399C25.8793 12.4791 25.7248 12.5869 25.5508 12.6537C25.3769 12.7206 25.1889 12.7444 25.0033 12.7232L25.0084 12.7239ZM22.1563 12.7239H20.7321V12.0793H22.1491C22.2551 12.0929 22.3624 12.066 22.4488 12.0042L22.4474 12.0049C22.4744 11.9801 22.4958 11.9502 22.5105 11.9169C22.5252 11.8836 22.5327 11.8478 22.5326 11.8115V11.8044C22.5326 11.768 22.5246 11.732 22.5093 11.6987C22.494 11.6655 22.4717 11.6359 22.4438 11.6118C22.3677 11.5588 22.2744 11.5351 22.1816 11.5452H22.1831L22.0487 11.5409C21.3908 11.5239 20.644 11.5041 20.644 10.6166C20.644 10.1845 20.9184 9.72336 21.689 9.72336H23.1537V10.3623H21.8133C21.711 10.3511 21.6078 10.3714 21.5179 10.4204L21.5208 10.4189C21.4828 10.4446 21.4527 10.4797 21.4334 10.5208C21.4142 10.5618 21.4066 10.6072 21.4115 10.6521C21.4164 10.697 21.4335 10.7398 21.4612 10.7759C21.4888 10.8121 21.5259 10.8402 21.5684 10.8574L21.5699 10.8581C21.6626 10.886 21.7597 10.8975 21.8566 10.8921H21.8544L22.248 10.902C22.5485 10.8736 22.8485 10.961 23.0844 11.1457L23.0822 11.1436C23.1616 11.2294 23.2219 11.3304 23.2595 11.4403C23.297 11.5501 23.3109 11.6664 23.3003 11.7818V11.7782C23.3025 12.4037 22.9161 12.7224 22.1542 12.7224L22.1563 12.7239ZM20.2944 12.7239H17.8533V9.72266H20.2923V10.3424H18.5828V10.8879H20.2525V11.4992H18.5828V12.0956L20.2944 12.0984V12.7217V12.7239ZM21.7172 7.56295H20.2287L19.9442 6.89428H18.4261L18.1502 7.56295H17.2951C16.911 7.58281 16.5329 7.46413 16.2319 7.22932L16.2355 7.23145C16.0926 7.07669 15.9841 6.8944 15.9169 6.69622C15.8498 6.49804 15.8255 6.28831 15.8456 6.08041L15.8448 6.08607C15.8262 5.87434 15.8517 5.66111 15.9198 5.45934C15.9878 5.25757 16.097 5.07147 16.2406 4.91236L16.2392 4.91378C16.3908 4.78372 16.5682 4.68566 16.7601 4.62571C16.9521 4.56575 17.1546 4.54518 17.355 4.56528L17.3492 4.56457H18.057V5.2042H17.3637C17.2622 5.19138 17.1591 5.20067 17.0618 5.2314C16.9644 5.26213 16.8751 5.31355 16.8003 5.38199L16.8011 5.38128C16.6466 5.57523 16.5717 5.81876 16.5909 6.06411V6.06057C16.5679 6.31265 16.6401 6.56423 16.7938 6.76749L16.7917 6.76466C16.9352 6.87974 17.119 6.93516 17.3037 6.91907H17.3008H17.6287L18.6622 4.56032H19.76L20.9972 7.39366V4.56032H22.1101L23.3942 6.64849V4.56032H24.1453V7.55799H23.1024L21.7158 5.30691V7.55799L21.7172 7.56295ZM19.1902 5.07103L18.6868 6.2667H19.6957L19.1902 5.07103ZM12.1131 7.56153H11.3822V4.56245H13.0636C13.3705 4.53121 13.6803 4.58238 13.9598 4.71049L13.949 4.70624C14.0614 4.7672 14.1551 4.85658 14.2204 4.96507C14.2857 5.07356 14.3201 5.19722 14.3202 5.3232L14.3188 5.37278V5.37066V5.39261C14.3188 5.55621 14.2708 5.71634 14.1803 5.85379C14.0899 5.99125 13.9609 6.10019 13.8089 6.16753L13.8031 6.16966C13.9483 6.22349 14.0703 6.30991 14.1635 6.42041L14.1649 6.42182C14.268 6.58798 14.3105 6.78351 14.2856 6.97645L14.2863 6.9722V7.56082H13.5489L13.546 7.18257V7.12591C13.5722 6.94096 13.5305 6.75289 13.4283 6.59536L13.4304 6.59891C13.3539 6.54379 13.2671 6.50408 13.1749 6.48208C13.0826 6.46007 12.9869 6.4562 12.8931 6.4707L12.8974 6.46999H12.1138V7.56082L12.1131 7.56153ZM12.1131 5.18649V5.85232H13C13.1253 5.86565 13.2518 5.84353 13.3647 5.78857L13.3611 5.78999C13.4074 5.76241 13.4456 5.72362 13.4722 5.67735C13.4987 5.63108 13.5127 5.57888 13.5128 5.52578L13.5121 5.50595V5.50666C13.5157 5.45283 13.5033 5.39914 13.4762 5.35218C13.4491 5.30523 13.4086 5.26709 13.3597 5.24245L13.3582 5.24174C13.2483 5.19549 13.1286 5.17605 13.0094 5.18507H13.0116L12.1131 5.18649ZM4.37378 7.56153H2.88889L2.60794 6.89286H1.0855L0.802389 7.56153H0.00794444L1.31733 4.56245H2.40283L3.64578 7.40074V4.56245H4.83817L5.79439 6.59607L6.67333 4.56245H7.89028V7.56011H7.13917L7.13772 5.21411L6.07822 7.56082H5.43689L4.3745 5.21057V7.56082L4.37378 7.56153ZM1.84311 5.07103L1.3455 6.2667H2.34361L1.84311 5.07103ZM15.4844 7.56082H14.7391V4.56245H15.4852V7.56011L15.4844 7.56082ZM10.8723 7.56082H8.43555V4.56245H10.8767V5.18578H9.16644V5.72624H10.8355V6.34178H9.165V6.94103H10.8752V7.56011L10.8723 7.56082Z" fill="#016FD0"/>
</g>
<defs>
<clipPath id="clip0_1895_2068">
<rect width="26" height="17" fill="white"/>
</clipPath>
</defs>
</svg>
