<svg width="27" height="22" viewBox="0 0 27 22" fill="none" xmlns="http://www.w3.org/2000/svg">
<path d="M0 18.1591C0 19.0452 0.355579 19.8949 0.988515 20.5215C1.62145 21.148 2.47989 21.5 3.375 21.5H23.625C24.5201 21.5 25.3786 21.148 26.0115 20.5215C26.6444 19.8949 27 19.0452 27 18.1591V8.97159H0V18.1591ZM3.97768 13.625C3.97768 13.1503 4.16817 12.6951 4.50724 12.3594C4.84631 12.0238 5.30619 11.8352 5.78571 11.8352H8.67857C9.15809 11.8352 9.61797 12.0238 9.95705 12.3594C10.2961 12.6951 10.4866 13.1503 10.4866 13.625V14.8182C10.4866 15.2929 10.2961 15.7481 9.95705 16.0837C9.61797 16.4194 9.15809 16.608 8.67857 16.608H5.78571C5.30619 16.608 4.84631 16.4194 4.50724 16.0837C4.16817 15.7481 3.97768 15.2929 3.97768 14.8182V13.625ZM23.625 0.5H3.375C2.47989 0.5 1.62145 0.851988 0.988515 1.47853C0.355579 2.10507 0 2.95484 0 3.84091V5.39205H27V3.84091C27 2.95484 26.6444 2.10507 26.0115 1.47853C25.3786 0.851988 24.5201 0.5 23.625 0.5Z" fill="#008A3D"/>
</svg>
