<svg width="33" height="33" viewBox="0 0 33 33" fill="none" xmlns="http://www.w3.org/2000/svg">
<path d="M21.0004 25.751C19.1708 25.7513 17.3821 25.209 15.8606 24.1927C14.3391 23.1764 13.1532 21.7318 12.4528 20.0415C11.7523 18.3512 11.5689 16.4912 11.9255 14.6966C12.2822 12.902 13.1631 11.2535 14.4566 9.95955C15.7502 8.66559 17.3985 7.78427 19.1929 7.42705C20.9874 7.06983 22.8475 7.25276 24.538 7.95269C26.2285 8.65263 27.6735 9.83814 28.6902 11.3593C29.707 12.8805 30.2498 14.669 30.25 16.4987V16.5C30.2475 18.9525 29.2722 21.3039 27.5382 23.0382C25.8041 24.7725 23.4529 25.7481 21.0004 25.751Z" fill="#F79E1B"/>
<path d="M11.9995 25.751C10.1699 25.751 8.38128 25.2085 6.85996 24.192C5.33864 23.1754 4.15292 21.7306 3.45273 20.0402C2.75254 18.3498 2.56934 16.4898 2.92629 14.6952C3.28325 12.9007 4.16432 11.2524 5.45809 9.95858C6.75187 8.66481 8.40024 7.78373 10.1948 7.42678C11.9893 7.06983 13.8493 7.25303 15.5397 7.95322C17.2301 8.6534 18.675 9.83913 19.6915 11.3604C20.708 12.8818 21.2505 14.6704 21.2505 16.5C21.248 18.9528 20.2725 21.3043 18.5382 23.0387C16.8038 24.773 14.4523 25.7485 11.9995 25.751Z" fill="#EB001B"/>
</svg>
