<svg width="30" height="36" viewBox="0 0 30 36" fill="none" xmlns="http://www.w3.org/2000/svg">
<g clip-path="url(#clip0_1964_1613)">
<path d="M25.4492 2.7548C23.8163 0.893633 20.8646 0.0957031 17.0884 0.0957031H6.12907C5.75544 0.0956455 5.39405 0.228912 5.1099 0.47153C4.82576 0.714147 4.63752 1.05019 4.57903 1.41922L0.015748 30.3607C-0.0749551 30.9314 0.366959 31.4482 0.945396 31.4482H7.71133L9.41055 20.6703L9.35782 21.0078C9.47887 20.246 10.1304 19.6841 10.902 19.6841H14.1172C20.4333 19.6841 25.379 17.1186 26.8237 9.69723C26.8666 9.47773 26.9037 9.2641 26.9358 9.05539C26.7535 8.95883 26.7535 8.95883 26.9358 9.05539C27.366 6.31238 26.9329 4.44523 25.4492 2.7548Z" fill="#27346A"/>
<path d="M11.9995 8.06727C12.1844 7.97905 12.3867 7.9334 12.5916 7.93367H21.1836C22.201 7.93367 23.15 7.99988 24.0172 8.13945C24.2598 8.17817 24.5012 8.22437 24.741 8.27797C25.0809 8.35298 25.4169 8.44477 25.7477 8.55301C26.174 8.69539 26.571 8.86121 26.9359 9.05539C27.366 6.31133 26.9329 4.44523 25.4492 2.7548C23.8154 0.893633 20.8646 0.0957031 17.0884 0.0957031H6.12813C5.35645 0.0957031 4.69997 0.6575 4.57903 1.41922L0.0157487 30.3596C-0.0749545 30.9312 0.36696 31.4473 0.94446 31.4473H7.71134L11.2367 9.09148C11.2714 8.87175 11.3589 8.66374 11.4918 8.48533C11.6247 8.30692 11.7989 8.16345 11.9995 8.06727Z" fill="#27346A"/>
<path d="M26.8239 9.69726C25.3792 17.1176 20.4336 19.6841 14.1173 19.6841H10.9012C10.1297 19.6841 9.47799 20.246 9.35811 21.0078L7.24417 34.4088C7.16518 34.9083 7.55143 35.3608 8.05674 35.3608H13.7603C14.087 35.3608 14.4029 35.2441 14.6513 35.0319C14.8997 34.8196 15.0642 34.5257 15.1153 34.203L15.1708 33.9124L16.2458 27.0996L16.3151 26.7231C16.3661 26.4004 16.5306 26.1065 16.779 25.8943C17.0274 25.682 17.3433 25.5654 17.67 25.5653H18.5236C24.0486 25.5653 28.3748 23.3207 29.639 16.8289C30.1667 14.116 29.8937 11.851 28.4978 10.2601C28.0744 9.77823 27.5485 9.38026 26.936 9.05542C26.9028 9.26519 26.8669 9.47776 26.8239 9.69726Z" fill="#2790C3"/>
<path d="M25.424 8.45262C25.1987 8.38685 24.9714 8.32861 24.7422 8.27801C24.5023 8.22526 24.2609 8.17938 24.0183 8.14043C23.1502 7.99992 22.2019 7.9336 21.1836 7.9336H12.5927C12.3877 7.93325 12.1852 7.97928 12.0005 8.06824C11.7997 8.16409 11.6252 8.30745 11.4923 8.48592C11.3594 8.66439 11.272 8.87259 11.2376 9.09246L9.41162 20.6704L9.35889 21.0079C9.479 20.246 10.1306 19.6841 10.9022 19.6841H14.1183C20.4345 19.6841 25.3801 17.1186 26.8247 9.69727C26.8678 9.47778 26.9038 9.26508 26.937 9.05543C26.5712 8.86246 26.1751 8.69531 25.7487 8.55399C25.6411 8.51831 25.5329 8.48451 25.4241 8.45262" fill="#1F264F"/>
</g>
<defs>
<clipPath id="clip0_1964_1613">
<rect width="30" height="35.3906" fill="white"/>
</clipPath>
</defs>
</svg>
