<svg width="34" height="11" viewBox="0 0 34 11" fill="none" xmlns="http://www.w3.org/2000/svg">
<g clip-path="url(#clip0_1895_2063)">
<path d="M17.584 3.50256C17.5646 5.02878 18.947 5.88041 19.9883 6.38681C21.0582 6.90633 21.4176 7.23951 21.4133 7.70416C21.4054 8.41519 20.5599 8.72902 19.7688 8.74121C18.3886 8.76255 17.586 8.36933 16.948 8.07193L16.4508 10.3937C17.0909 10.6881 18.2762 10.9448 19.5053 10.9561C22.3905 10.9561 24.2781 9.5348 24.2883 7.33122C24.2996 4.53457 20.412 4.37978 20.4385 3.12975C20.4477 2.75072 20.8101 2.34623 21.6043 2.24339C21.9974 2.19144 23.0826 2.15168 24.3129 2.71705L24.7958 0.470667C24.1341 0.230257 23.2838 5.24521e-05 22.225 5.24521e-05C19.5094 5.24521e-05 17.5994 1.44065 17.584 3.50256ZM29.4357 0.193546C28.9089 0.193546 28.4649 0.50022 28.2668 0.970835L24.1454 10.7911H27.0285L27.6022 9.20878H31.1253L31.4581 10.7911H33.9992L31.7817 0.193546H29.4357ZM29.839 3.05633L30.6711 7.03581H28.3924L29.839 3.05633ZM14.0884 0.193679L11.8159 10.7909H14.5632L16.8347 0.193414H14.0884M10.0242 0.193414L7.16464 7.40663L6.0079 1.27353C5.87217 0.588883 5.33617 0.193546 4.74094 0.193546H0.0664496L0.000976562 0.501281C0.960629 0.709088 2.05096 1.04426 2.71154 1.40288C3.1158 1.62196 3.23107 1.81346 3.36388 2.33404L5.55477 10.7911H8.45803L12.9091 0.193546H10.0242" fill="url(#paint0_linear_1895_2063)"/>
</g>
<defs>
<linearGradient id="paint0_linear_1895_2063" x1="15.6313" y1="11.1758" x2="15.9478" y2="-0.0761797" gradientUnits="userSpaceOnUse">
<stop stop-color="#222357"/>
<stop offset="1" stop-color="#254AA5"/>
</linearGradient>
<clipPath id="clip0_1895_2063">
<rect width="34" height="11" fill="white"/>
</clipPath>
</defs>
</svg>
